<?xml version="1.0" encoding="UTF-8"?>
<svg id="Layer_1" data-name="Layer 1" xmlns="http://www.w3.org/2000/svg" viewBox="0 0 1548.9 1202.8">
  <defs>
    <style>
      .cls-1 {
        fill: #fefefe;
      }

      .cls-1, .cls-2 {
        stroke-width: 0px;
      }

      .cls-2 {
        fill: #fc9c22;
      }
    </style>
  </defs>
  <path class="cls-1" d="m1548,397.6c-3.7-38.7-12.7-76-30.5-110.8-20.4-39.8-50.5-69.7-91.2-88.6-31-14.4-64-21-97.8-24.2-25.4-2.3-50.8-5.6-76.5-2.4-23.6,3-46.1,9-67.7,18.7-23.5,10.6-44.4,25.2-65.1,40.3-2.8,2.1-4.5,2-7.2,0-27.5-20.5-54.7-41.3-80.3-64.1-8-7.2-16.3-14.2-20.1-25-2.8-8-2.8-16.3-3.3-24.5-.8-15.3-3.8-30.2-7.5-45-.6-2.4-1.4-3.3-4.4-2.2-9.7,3.8-19.5,7.2-29.4,10.7-20.9,7.3-41.9,14.3-63.6,20.3-1-14-2.5-27.4-4.3-40.7-2.6-19.2-5.9-38.3-11.7-56.8-.9-3-2.5-3.6-5-3.1-10.1,1.8-20.2,3.4-30.2,5.7-53.2,12.2-102.3,35-150.1,60.6-22.2,11.9-43.9,24.8-65.5,37.8-3,1.8-4.3,2.3-5.8-1.8-3.8-10-8.3-19.8-12.4-29.8-1-2.4-1.8-2.8-4.4-2.1-6.5,1.7-12.6,3.9-18.5,7-12.5,6.6-24.3,14.4-35.8,22.5-52.5,37-101.9,78.1-151.2,119.2-2.6,2.1-4.1,2-6.7.5-22.8-13.2-46-25.6-71.6-32.8-16.6-4.6-33.5-7.5-50.5-10.3-23.3-3.9-46.8-4.9-70-1.2-31.5,4.9-61.9,13.7-90.8,27.5-49.4,23.6-82.3,61.7-99.6,113.5-9.4,28.2-15.8,57.1-18.3,86.8-1.5,18-1.4,35.9.5,53.8,2.7,25.1,8.6,49.5,16.6,73.4,16.9,51,43,96.2,82.8,132.9,31.8,29.3,68.3,50.1,110.5,60.5,2.3.6,3.8,1.5,5.1,3.3,13.5,18.5,28.7,35.3,45.2,51.2,30.8,29.7,65.3,53.1,106.3,66.2,22.8,7.3,46.1,11.8,70.1,13.2,3,.2,3.8.7,3.3,4-1.2,9-1.8,18.2-2.6,27.3-1.6,19-1.2,38,1.6,56.8,2.9,19.6,7.8,38.9,13.8,57.8,7.8,24.5,18.1,47.6,32.8,68.8,17.5,25.2,40,45.4,63.8,64.2,22.3,17.5,46.6,31.6,73.4,41.4,35.6,13,72.9,17.7,110.1,22.6,23,3.1,46.1,2.7,69.2-.6,21.7-3.1,42.9-7.8,63.6-14.7,36.5-12.3,69.6-30.8,100.5-53.5,28.6-21.1,56-43.4,76.9-72.7,23.2-32.7,38.1-68.5,42.4-108.5,3.1-28.8,1.5-57.4-3.8-85.8-.7-3.9-3.7-9-.9-11.4,2.6-2.2,8-1.5,12.1-1.4,18.6.2,37.2-1,55.6-3.6,45.5-6.3,87.1-21.7,122-52.3,22.6-19.8,42.6-41.7,52-71.2.8-2.5,2.5-3.1,4.6-3.9,9.7-3.6,19.5-7.1,29-11.1,35.7-15.2,68.5-35.1,96.8-61.9,42.4-40,69.1-89,83.1-145.2,8.6-34.5,13.8-69.3,10.4-105l.2-.3Zm-474.8,547.9c-1.1,13.3-4,26.2-7.7,39-5.7,20.2-14.6,38.9-26,56.4-15.6,23.8-34.9,44.1-57.5,61.5-12.8,9.9-25.5,20-38.9,29-22.2,14.9-45.7,27.2-70.8,36.6-14.3,5.4-28.9,9.9-43.8,13-30.4,6.4-61.1,9.2-92.2,5-19.1-2.6-38.2-5.1-57.1-8.5-38.2-6.8-74-19.9-105.9-42.5-23.6-16.8-45.6-35.4-64.3-57.8-19.9-23.9-32.8-51.4-41.8-81-4.6-15.1-8.4-30.3-11.4-45.8-3.1-16.6-3-33.4-3-50.2s2.2-24.2,2.6-36.3c0-3.4,1.1-5.2,5.2-5.5,13.4-.8,27,0,40.3-2.6,9-1.7,18-3,27-4.5.9-.2,1.9-1.1,2.8-.2,1,1,.2,2.1-.2,3.2-7.4,20.1-13.4,40.7-16.8,61.8-3.8,24.3-4.6,48.8,3.7,72.5,7.4,21,21.3,36.7,41.1,46.9,16.8,8.7,35,13,53.8,14.2,7,.4,13.9,1,21,.8,1.8,0,3.9-.2,4.3,2.3.5,2.9-1.9,3.2-3.8,3.5-12.7,1.8-25.3,3.6-38,5.3-4.3.6-8.6.8-12.9,1.4-5,.8-5.9,3-2.8,7,16.3,21,36.8,36.5,61.9,45.3,15.2,5.4,31,8.3,47,10.4,21.3,2.8,42.8,3.3,64.2,5,19.8,1.5,39.1-1.1,58.7-2.7,18.6-1.6,36.9-4.5,55.1-8.5,28.4-6.3,56-14.6,80-31.9,7-5.1,13.2-11,18-18.2,3.8-5.7,1.2-10.8-5.6-11.7-20.4-2.7-40.8-5.4-61.2-8.4-2.4-.3-6.7.4-6.6-2.8,0-3.6,4.2-2,6.6-2.3,10.1-1,20.3-.8,30.3-2.6,34.7-6.2,62.9-21.4,77.3-55.5,7.9-18.7,9.9-38.5,8.6-58.6-1.2-19.3-5.9-37.9-10.9-56.5-2.9-10.7-4.9-21.7-7.4-33.2,10.3,2.3,19.8,4.5,29.4,6.2,11.6,2.1,23.3,3.4,35.1,4.4,3.4.3,5.2,1.4,5.8,4.7,2.5,15.1,5.9,30,6.9,45.3,1,15.7,1.1,31.2-.2,46.9v.2Zm-377.5-181.3c9.3,3.8,19.1,1.7,28.6,2,7.6.2,14.9.9,21.2,5.6,4.8,3.6,7.7,8.1,7.6,14.2,0,5.6-1.4,7.2-6.9,7.5h-5c-13.4-1.4-27-2.2-37.9-11.5-4.7-4.1-8.1-9-10.1-15-.7-2.2-.3-4.1,2.5-2.9h0Zm96.8,23c0-9.7,7.3-17.9,17.1-19.5,5.9-1,11.9-.6,19.4-.7,6.1-.4,13.9,1,21.4-2.6,2.6-1.2,2.7,1.6,1.9,3.4-3.1,7.5-7.7,14-14.8,18-12.4,7-26,8.5-39.9,8-4.1-.2-5.1-3.1-5.1-6.6h0Zm532.6-101.5c-3.6,12.8-7.9,25.3-12.6,37.7-3.9,10.2-8,20.2-14.6,29-11.1,14.8-23.8,27.9-38,39.6-22.5,18.4-48.1,30.7-76.1,38.2-20.6,5.5-41.6,8.5-62.8,9.9-24.7,1.7-49.1-1.4-73.6-3.8-16.2-1.6-32.2-4.6-47.9-8.8-34.3-9.2-64.9-25.3-90.6-50.3-21.8-21.2-38.2-46.1-48.9-74.4-6.4-17-11-34.7-16.6-52-7.3-22.7-15.1-45.2-25.3-66.8-6.5-14-13.4-27.6-24.3-38.8-12.1-12.4-26.4-9.8-36.7-.5-12.3,11-19.4,25.3-25.7,40.1-10.3,23.8-17.9,48.6-23.3,73.8-9.3,44-33.6,78.9-63.9,110.4-29.6,30.8-64.5,53.6-104.8,67.8-15.2,5.3-31.2,7.6-47.3,9.2-15.6,1.5-31.2,2.6-46.9,1.6-19.8-1.2-39.2-4-58.5-9-28.2-7.3-54.2-19-78.2-35.5-35.4-24.4-62-56.2-79.4-95.6-8.2-18.6-14-37.9-17.1-58-2.4-15.4-3.5-31-6.7-46.3-5.3-25.2-10.7-50.3-24-72.9-5.6-9.5-12.4-18-23.9-20.9-2.8-.7-3.5-2.8-3.7-5.3-1.7-20.5-4.8-41-4.6-61.7.1-9,0-17.9,1.8-26.8.9-4.2,2.8-6.1,6.3-7.1,10.7-3,21.7-4.9,32.7-6.4,16.1-2.1,32.3-4,48.5-5.8,7.3-.8,14.5-1.8,21.9-2,15.3-.4,30.5-2.1,45.9-2.7,18-.7,35.9-2.1,53.9-1.5,33.6,1.2,67.2,2.2,100.8,4.2,28.2,1.8,56.4,3.9,84.5,7.2,23.6,2.8,47.2,5.7,70.4,10.6,14.4,3.1,28.5,7.5,42.9,11,10.1,2.4,20.2,5,30.5,7.2,11.2,2.4,22.4,4.7,33.7,6.6,17.1,2.8,34.2,6.2,51.5,4.8,14.8-1.3,29.5-4.4,44.3-6.7,10.5-1.7,21-3.3,31.5-5,9-1.5,18-3.1,27-4.5,15.4-2.5,30.8-5,46.2-7.4,15.2-2.3,30.5-4.6,45.8-6.8,12.2-1.8,24.4-3.5,36.6-5.1,14.8-1.9,29.7-3.7,44.5-5.3,18.7-2,37.4-3.5,56.1-5.1,46-3.8,92.2-3.7,138.3-3.7s55.9,1.1,83.7,4.8c20.6,2.7,40.8,7.3,60.2,14.8,3.8,1.5,5.7,4,6.4,7.5,3,15.4,4.1,31,3.1,46.7-.8,13.4-1.8,26.9-3.4,40.3-.9,7.7-4.7,11.9-10.8,16-13.3,8.8-23.3,20.7-27.8,36.2-2.9,9.9-4.5,20.1-6.7,30.1-3.6,16-7,32.1-10.9,48-4.1,16.5-8.6,33-13.2,49.4l-.2-.2Zm206.7-229.5c-2.2,15.8-5,31.5-9.1,46.8-6,22.3-14.1,43.7-25,64.1-14.4,27.1-32.5,51.3-55.3,71.9-27.6,24.8-58.5,44.4-93.1,58-4.6,1.8-9.3,3.4-13.9,5.1-2.9,1.1-3.5.9-3.1-2.7,1.1-10.2,8.6-15.6,15.2-21.6,21.9-20,42.1-41.5,60.1-65.1,14.6-19.3,27.6-39.5,37.8-61.5,10.4-22.1,17.9-45.1,22-69.3,3.8-22.7,4.3-45.4,1-68-5.3-36.5-18.5-70.3-39.7-100.7-7.9-11.4-19.8-17.3-31.7-23-14.4-6.9-29.3-12.6-44.9-15.7-18.9-3.8-38-5.5-57.5-3.1-26.3,3.1-50.6,11.5-73.5,24.4-8.8,5-17,10.7-25,16.8-2.3,1.8-3,3.7-1.6,6.8,5.9,13.1,11.4,26.5,17.1,39.7,2.2,5,1.2,6.5-4.3,6.5h-47.5v.3h-46c-3.2,0-5.8-.8-8.2-2.8-20.3-16.8-42.4-30.4-66.8-40.2-20.7-8.3-42-13-64.4-13.9-22.8-1-45.1,2.4-66.7,9.2-20.8,6.5-40.1,16.4-58.2,28.5-16.5,11.1-31.9,23.7-45.5,38.2-8.4,8.9-16.3,18.2-22.5,28.8-1.5,2.6-3.3,3.6-6.1,3-.5,0-1-.4-1.5-.3-12.4,2.6-18.3-5.5-24.8-14-21.1-27.6-46.5-50.6-76.9-67.7-18-10.1-37.2-17.1-57.5-21-12.5-2.3-25-3.8-37.6-3.6-18,.3-35.8,2.2-53.2,7.3-16.5,4.9-33.6,7.9-49.7,14.3-18.6,7.3-35.1,17.7-48.9,32.2-1.6,1.7-3.2,2.2-5.2,2.1-17.3-1.1-34.5-2.3-51.8-3.3-6-.4-12-.6-18-.7-3.7,0-5.7-1.4-5.3-5.4,1.1-12.8,1.9-25.5,3.3-38.3,1-8.7,1.2-9-6.7-13.2-21.6-11.4-43.9-21-67.7-26.7-26-6.3-52.2-7.6-78.5-.8-29.3,7.5-55.8,20.8-78.8,40.3-19.1,16.1-32,37-39,61-5.7,19.4-7,39.4-5,59.7,1.9,19.5,6.3,38.3,12.6,56.7,10.3,30,24.6,58,41.3,84.9,15.2,24.5,32.1,47.8,50.4,70,5.3,6.5,11.6,11.9,18.8,15.9,7.3,4.1,11.5,9.9,13,18,1.4,7.5,4.6,14.5,7.4,21.5.5,1.2,1.5,2.6.8,3.7-.8,1.1-2.5.5-3.7,0-37.9-9.8-71-28.4-100-54.5-26.3-23.6-46.9-51.5-62.5-83.1-8.9-18-16.2-36.5-21.9-55.8-4.6-15.6-8.8-31.3-11.3-47.3-3.1-19.6-3.7-39.4-2.6-59.2,1.2-20.8,4.9-41.2,10-61.3,5.1-20.6,11.9-40.6,21.9-59.5,16.9-31.5,41.9-54.6,73.5-70.7,22.7-11.6,46.8-18.9,71.6-24.8,21.5-5.1,43.1-6.8,64.9-5.2,18.4,1.3,36.5,5.1,54.6,8.7,33.1,6.7,61.9,22.9,90.6,39.5,3.3,1.9,5.5,2.4,8.7-.3,20.9-17.5,41.8-34.9,63-52.1,30-24.4,60.3-48.3,92-70.5,12.6-8.8,25.3-17.4,39-24.5,3.6-1.9,4.9-.5,6,2.2,4.2,10.2,8.4,20.5,12.4,30.9,1.5,3.8,2.8,4.8,6.8,2.6,26.3-14.9,51.8-31,78.5-45.3,30.8-16.5,62.1-31.7,94.9-43.8,21.8-8,44-14.6,66.8-19,4.4-.9,6.3-.5,7.4,4.6,6.4,27.6,9.9,55.6,11.7,83.8.2,3.6,1.3,7.2,1.1,10.9-.2,2.7,1.4,2.9,3.6,2.3,8.5-2.3,17-4.4,25.4-7,15.8-4.9,31.5-10.1,47.2-15.3,6.3-2.1,12.7-3.9,18.7-6.6,4.9-2.2,5.1.5,5.8,3.8,1.7,8.7,3.2,17.5,2.9,26.2-.8,25.6,11.1,43.9,29.9,59.8,26.8,22.6,54.3,44.3,82.6,65,10.4,7.6,7.1,7.4,17.4.4,19.3-13,37.9-27.2,58.9-37.5,16.1-7.9,32.7-14,50.4-17.7,17.7-3.7,35.5-5.5,53.5-4.5,14.9.8,29.8,2.4,44.7,3.8,14.5,1.4,29,3.7,43.2,7,45.6,10.5,84.6,31.9,113.1,70,14.1,18.9,24,39.9,31.4,62.2,6.5,19.6,11,39.7,13.5,60.1,2.8,22.7,2.5,45.4-.7,68.2v.3Z"/>
  <path class="cls-2" d="m1160,365.8h-46c-3.2,0-5.8-.8-8.2-2.8-20.3-16.7-42.4-30.5-66.9-40.2-20.7-8.3-42-13-64.4-13.9-22.8-.9-45,2.4-66.7,9.2-20.8,6.5-40.1,16.4-58.2,28.5-16.6,11.1-31.9,23.7-45.6,38.2-8.4,8.9-16.3,18.2-22.5,28.8-1.5,2.6-3.3,3.6-6.1,3-.5,0-1-.4-1.5-.3-12.4,2.6-18.3-5.5-24.8-14-21.1-27.6-46.5-50.6-76.9-67.7-18-10.1-37.2-17.2-57.5-21-12.5-2.3-25-3.8-37.6-3.6-18,.3-35.8,2.2-53.2,7.3-16.5,4.9-33.6,7.9-49.7,14.3-18.5,7.3-35.1,17.7-48.9,32.2-1.6,1.7-3.1,2.2-5.2,2.1-17.3-1.1-34.5-2.3-51.8-3.4-6-.4-12-.6-18-.7-3.7,0-5.7-1.4-5.3-5.4,1.1-12.8,1.9-25.5,3.3-38.3,1-8.7,1.2-9-6.7-13.1-21.6-11.4-43.9-21-67.7-26.7-26-6.3-52.2-7.6-78.5-.8-29.3,7.5-55.8,20.8-78.8,40.3-19.1,16.1-32,37-39,61-5.7,19.4-7,39.4-5,59.7,1.9,19.5,6.3,38.3,12.6,56.7,10.3,30,24.6,58,41.3,85,15.2,24.5,32.1,47.8,50.4,70,5.3,6.5,11.6,11.9,18.8,15.9,7.3,4.1,11.5,9.9,13,18,1.4,7.5,4.6,14.5,7.4,21.5.5,1.2,1.5,2.6.8,3.7-.8,1.1-2.5.5-3.7,0-37.9-9.8-71-28.4-100-54.5-26.3-23.6-46.9-51.5-62.5-83.1-8.9-18-16.2-36.5-21.9-55.8-4.6-15.6-8.8-31.3-11.3-47.3-3.1-19.6-3.7-39.4-2.6-59.2,1.2-20.8,4.9-41.2,10-61.4,5.1-20.6,11.9-40.6,21.9-59.4,16.9-31.6,41.9-54.6,73.5-70.7,22.7-11.6,46.8-18.9,71.6-24.8,21.5-5,43.1-6.7,64.9-5.2,18.4,1.3,36.5,5,54.6,8.7,33.1,6.7,61.9,22.9,90.6,39.5,3.3,1.9,5.5,2.4,8.7-.3,20.9-17.5,41.8-34.9,63-52.1,30-24.4,60.3-48.4,92-70.5,12.6-8.8,25.3-17.4,39-24.5,3.6-1.9,4.9-.5,6,2.2,4.2,10.2,8.4,20.5,12.4,30.9,1.5,3.8,2.8,4.8,6.8,2.6,26.3-14.9,51.8-31,78.5-45.3,30.8-16.5,62.1-31.7,94.9-43.7,21.8-8,44-14.6,66.8-19,4.4-.9,6.3-.5,7.4,4.6,6.4,27.6,9.9,55.6,11.7,83.8.2,3.6,1.3,7.2,1.1,10.9-.2,2.7,1.4,2.9,3.6,2.3,8.5-2.3,17-4.4,25.4-7,15.8-4.9,31.5-10.1,47.2-15.3,6.3-2.1,12.7-3.9,18.7-6.6,4.9-2.2,5.1.5,5.8,3.8,1.7,8.7,3.2,17.5,2.9,26.2-.8,25.6,11.1,43.9,29.9,59.7,26.9,22.6,54.3,44.4,82.6,65,10.4,7.6,7.1,7.4,17.4.4,19.3-13,37.9-27.2,58.9-37.5,16.1-7.9,32.7-14,50.4-17.7,17.7-3.7,35.5-5.5,53.5-4.5,14.9.8,29.8,2.4,44.7,3.8,14.5,1.4,29,3.7,43.2,7,45.6,10.6,84.6,31.9,113.1,70,14.1,18.9,24,39.9,31.4,62.2,6.5,19.6,11,39.7,13.5,60.1,2.8,22.7,2.5,45.4-.7,68.2-2.2,15.8-5,31.5-9.1,46.8-6,22.3-14.1,43.7-25,64.2-14.4,27.1-32.5,51.3-55.3,71.9-27.6,24.8-58.5,44.4-93,58-4.6,1.8-9.3,3.4-13.9,5.1-2.9,1.1-3.5.9-3.1-2.7,1.1-10.2,8.6-15.6,15.2-21.6,21.9-20,42.1-41.5,60.1-65.1,14.6-19.3,27.6-39.5,37.8-61.5,10.4-22.1,17.9-45.1,21.9-69.3,3.8-22.7,4.3-45.4,1-68.1-5.3-36.6-18.5-70.3-39.7-100.7-7.9-11.4-19.8-17.3-31.7-23-14.4-6.9-29.3-12.6-44.9-15.7-18.9-3.8-38-5.5-57.5-3.1-26.3,3.2-50.6,11.5-73.4,24.4-8.8,4.9-17,10.7-25,16.8-2.3,1.8-3,3.7-1.5,6.8,5.9,13.1,11.4,26.4,17.1,39.7,2.2,5,1.2,6.5-4.3,6.5h-47.5v.5Z"/>
  <path class="cls-2" d="m1395,419c-.7-3.5-2.6-6-6.4-7.5-19.5-7.5-39.6-12.1-60.2-14.8-27.8-3.7-55.7-4.8-83.7-4.8-46.1,0-92.2,0-138.3,3.7-18.7,1.5-37.5,3.1-56.1,5.1-14.9,1.6-29.7,3.4-44.5,5.3-12.2,1.5-24.4,3.3-36.6,5.1-15.3,2.2-30.5,4.4-45.8,6.8-15.4,2.4-30.8,4.9-46.2,7.4l-27,4.5c-10.5,1.7-21,3.3-31.5,5-14.8,2.3-29.5,5.5-44.3,6.7-17.3,1.5-34.5-2-51.5-4.8-11.3-1.9-22.5-4.2-33.7-6.6-10.2-2.2-20.3-4.8-30.5-7.2-14.3-3.4-28.4-7.9-42.9-11-23.2-4.9-46.8-7.8-70.4-10.6-28.1-3.3-56.3-5.4-84.5-7.2-33.5-2.1-67.2-3-100.8-4.2-18-.6-35.9.8-53.9,1.5-15.3.6-30.5,2.3-45.9,2.7-7.3.2-14.6,1.1-21.9,2-16.2,1.8-32.4,3.6-48.5,5.8-11,1.5-22,3.3-32.7,6.4-3.6,1-5.5,2.9-6.3,7.1-1.8,8.9-1.6,17.9-1.8,26.8-.2,20.7,3,41.2,4.6,61.7.2,2.5.8,4.5,3.7,5.3,11.5,2.9,18.2,11.4,23.9,20.9,13.3,22.5,18.7,47.7,24,72.9,3.2,15.3,4.3,30.9,6.7,46.3,3.1,20.1,8.9,39.4,17.1,58,17.3,39.5,43.9,71.2,79.4,95.6,23.9,16.5,50,28.2,78.2,35.5,19.2,5,38.7,7.8,58.5,9,15.7,1,31.3,0,46.9-1.6,16.1-1.6,32.1-3.8,47.3-9.2,40.3-14.2,75.2-37,104.8-67.8,30.3-31.5,54.6-66.4,63.9-110.4,5.3-25.2,13-50,23.3-73.8,6.4-14.8,13.4-29.1,25.7-40.1,10.4-9.3,24.7-11.9,36.7.5,10.9,11.2,17.8,24.9,24.3,38.8,10.2,21.6,18,44.1,25.3,66.8,5.6,17.3,10.2,35,16.6,52,10.7,28.3,27,53.2,48.9,74.4,25.7,25,56.3,41.1,90.6,50.3,15.7,4.2,31.7,7.2,47.9,8.8,24.5,2.4,48.9,5.5,73.6,3.8,21.3-1.5,42.2-4.4,62.8-9.9,28-7.5,53.6-19.7,76.1-38.2,14.2-11.7,27-24.8,38-39.6,6.6-8.9,10.7-18.8,14.6-29,4.7-12.4,9-24.9,12.6-37.7,4.6-16.4,9.1-32.9,13.2-49.4,3.9-15.9,7.3-32,10.9-48,2.3-10,3.9-20.3,6.7-30.1,4.5-15.5,14.5-27.4,27.8-36.2,6.1-4.1,9.9-8.3,10.8-16,1.6-13.4,2.6-26.8,3.4-40.3,1-15.7,0-31.3-3.1-46.7l.2.2Zm-721.2,170.7c-2,19.5-5.7,38.7-10.8,57.6-8.4,31-19.3,61.2-37.1,88.3-10.3,15.6-25.1,25.5-41.3,33.9-20.1,10.4-41.5,17.5-63.6,22-21,4.3-42.3,7.3-62,6.2-24.2.5-46.5-1.5-68.3-6.1-36.7-7.8-68.5-25-94.4-52.4-9.3-9.8-14.2-22.2-18.9-34.6-8.1-21-12.6-42.9-15.7-65.1-3.7-26.6-6.3-53.4-4-80.1,3-33.8,15.5-63.3,45.9-82.1,17.1-10.6,36.1-14.8,56-15.3,17.8-.5,35.6-.5,53.4-1.3,29.8-1.3,59.6-1.1,89.4-.4,22.1.5,44.3.8,66.2,3.9,19.2,2.7,38.4,5.8,56.3,13.9,24.2,10.9,40,29.1,46.4,55.2,4.6,18.7,4.4,37.4,2.5,56.5h0Zm621.7,0c-.9,22-2.8,43.8-6.7,65.4-4.8,26.6-11.6,52.8-26.1,76.1-7.1,11.5-17.9,19.9-28.6,28-19.7,14.9-41.9,24.9-66,30.8-30.9,7.5-62.2,8.9-93.6,7.3-18.5-.9-36.8-4.3-54.9-9-21.4-5.6-41.6-13.7-61-24.3-21.8-11.9-34.9-31-45.2-52.4-7.8-16.1-14.1-32.8-19.2-49.9-5.7-19.2-10.5-38.7-13.2-58.7-2-14.5-4.5-29-3.4-43.7,1.5-20.9,5.7-41.1,19.5-58,11.1-13.7,25.7-22.1,42.1-27.5,25-8.1,50.9-11,77-12.2,25.1-1.1,50.2-2.3,74.6-1.7,37.2-.8,73.7.8,110.1,2.4,26.7,1.2,50.7,11,69,31.8,10.4,11.9,17,25.9,21.2,41,4.9,17.9,5.2,36,4.4,54.4v.2Zm61.8-136c-10.6-.2-18.9-8.8-18.6-19.2.3-10.2,8.8-18.4,19-18.3,10,0,18.7,9.1,18.4,19-.4,10.5-8.6,18.7-18.8,18.5Z"/>
  <path class="cls-2" d="m996.3,838c10.3,2.3,19.7,4.5,29.4,6.2,11.6,2.1,23.3,3.4,35.1,4.4,3.4.3,5.2,1.4,5.7,4.7,2.5,15.1,5.9,29.9,6.9,45.3,1,15.7,1.1,31.2-.2,46.9-1.1,13.3-4,26.2-7.7,39-5.7,20.2-14.6,38.9-26,56.4-15.6,23.8-34.9,44.1-57.5,61.5-12.8,9.9-25.5,20-38.9,29-22.2,14.9-45.7,27.2-70.8,36.6-14.3,5.4-28.9,9.9-43.8,13-30.4,6.4-61.1,9.3-92.1,5.1-19.1-2.6-38.2-5.1-57.1-8.5-38.2-6.8-74-19.9-105.9-42.6-23.6-16.8-45.6-35.4-64.3-57.7-19.9-23.9-32.8-51.4-41.8-81-4.6-15.1-8.4-30.3-11.4-45.8-3.1-16.6-3-33.4-3-50.3s2.2-24.2,2.6-36.3c0-3.4,1.1-5.2,5.2-5.5,13.4-.8,27,0,40.3-2.6,9-1.7,18-3,27-4.5.9-.2,1.9-1.1,2.8-.2,1,1,.2,2.1-.2,3.2-7.4,20.1-13.4,40.7-16.8,61.8-3.8,24.3-4.6,48.8,3.7,72.5,7.4,21,21.3,36.7,41.1,47,16.9,8.7,34.9,13,53.8,14.2,7,.5,14,1,21,.8,1.8,0,3.9-.2,4.3,2.3.5,2.9-1.9,3.2-3.8,3.5-12.7,1.8-25.3,3.6-38,5.3-4.3.6-8.6.8-12.9,1.4-5,.8-5.9,3-2.8,7,16.3,21,36.8,36.5,61.9,45.3,15.2,5.4,31,8.3,47,10.4,21.3,2.8,42.8,3.3,64.2,5,19.8,1.6,39.1-1.1,58.7-2.7,18.6-1.6,36.9-4.4,55.1-8.5,28.4-6.3,56-14.6,80.1-31.9,7-5.1,13.2-11,18-18.2,3.8-5.7,1.2-10.8-5.6-11.7-20.4-2.7-40.8-5.4-61.2-8.4-2.4-.3-6.7.4-6.6-2.8,0-3.6,4.2-2,6.6-2.3,10.1-1,20.3-.8,30.3-2.6,34.7-6.2,62.9-21.4,77.3-55.5,7.9-18.7,9.9-38.5,8.6-58.6-1.2-19.3-5.9-37.9-10.9-56.5-2.9-10.7-4.9-21.7-7.4-33.2h0Z"/>
  <path class="cls-2" d="m741.2,793.6c-13.4-1.4-27-2.2-37.9-11.5-4.7-4.1-8.1-9-10.1-15-.7-2.2-.3-4.1,2.5-2.9,9.3,3.8,19.1,1.7,28.6,2,7.6.2,14.9.9,21.2,5.6,4.8,3.6,7.7,8.1,7.6,14.3,0,5.6-1.4,7.2-6.9,7.5-1.7,0-3.3,0-5,0h0Z"/>
  <path class="cls-2" d="m829.1,766.9c6.1-.4,13.9,1,21.4-2.6,2.6-1.2,2.7,1.6,1.9,3.4-3.1,7.5-7.7,14-14.8,18-12.4,7-26,8.5-39.9,8-4.1-.2-5.1-3.1-5.1-6.6,0-9.7,7.3-17.9,17.1-19.5,6-1,11.9-.6,19.5-.7h-.1Z"/>
  <path class="cls-1" d="m671.4,533.2c-6.5-26.1-22.3-44.2-46.4-55.2-17.9-8.1-37.1-11.2-56.3-13.9-21.9-3.1-44.1-3.3-66.2-3.9-29.8-.8-59.6-1-89.4.4-17.8.8-35.6.8-53.4,1.3-19.9.5-38.9,4.8-56,15.3-30.4,18.8-42.9,48.3-45.9,82.1-2.4,26.7.2,53.6,4,80.1,3.1,22.2,7.7,44.1,15.7,65.1,4.8,12.4,9.7,24.8,18.9,34.6,25.9,27.4,57.7,44.6,94.4,52.4,21.8,4.6,44,6.6,68.3,6.1,19.7,1.1,41-2,62-6.2,22.1-4.5,43.5-11.5,63.6-22,16.1-8.4,31-18.2,41.3-33.9,17.9-27.1,28.7-57.3,37.1-88.3,5.1-18.9,8.8-38.1,10.8-57.6,2-19,2.2-37.8-2.5-56.5h0Zm-158.7,234.4c-20.8,4.9-42.1,6-63.4,5.4-27.6-.8-53.9-6.4-76.8-23.1-19.4-14.1-34.2-32.4-47.1-52.4-13.2-20.5-23.8-42.3-33.3-64.7-4.3-10.2-6.2-21.3-8.4-32.2-4.4-21.2-6.7-42.6-6.7-64.3s3.1-19.1,8.8-27.3c12.9-18.7,31-29.4,53.1-33.4,7-1.3,7.4-.4,9,6.2,3.5,14.3,0,28.5.2,42.8.6,38.4,6.2,75.8,21.6,111.2,17.4,40.1,45.4,70.4,84.9,89.9,18,8.8,36.1,17.2,55.1,23.4,8.6,2.8,17.3,5.6,26.4,6.8,1,0,1.9.6,3.7,1.2-8.8,6-17.9,8.5-27,10.6h-.1Zm32.1-109.6c-41.4,1.1-76.6-34-77.1-75.8-.5-44.3,35.5-78.7,77.1-78.6,43,0,77.3,34.3,77.6,77.1.4,42.9-35.9,78.9-77.6,77.3Z"/>
  <path class="cls-1" d="m1291,535.2c-4.2-15.2-10.7-29.2-21.2-41-18.2-20.7-42.3-30.6-69-31.8-36.4-1.6-72.9-3.2-110.1-2.4-24.4-.6-49.5.6-74.6,1.7-26.1,1.2-52,4.1-77,12.2-16.5,5.3-31,13.8-42.1,27.5-13.8,16.9-17.9,37.1-19.5,58-1.1,14.7,1.5,29.2,3.4,43.7,2.7,20,7.4,39.4,13.2,58.7,5.1,17.2,11.5,33.8,19.2,49.9,10.3,21.4,23.4,40.5,45.2,52.4,19.4,10.6,39.6,18.7,61,24.3,18.1,4.7,36.4,8.1,54.9,9,31.4,1.6,62.8.2,93.6-7.3,24.1-5.9,46.2-15.8,66-30.8,10.7-8.1,21.4-16.4,28.6-28,14.4-23.3,21.3-49.5,26.1-76.1,3.9-21.6,5.8-43.4,6.7-65.4.7-18.4.4-36.5-4.4-54.4v-.2Zm-375.1,43c.2-42.6,33.9-77.7,77.9-77.4,42.7.3,76.7,33.2,77,76.8.3,44.3-34.2,77.8-77.4,78-43.1,0-77.1-34-77.5-77.4h0Zm345.8,10.6c-2.7,14.7-5.1,29.5-10.6,43.4-8.9,22.3-19.8,43.5-32.7,63.9-11.3,17.9-24.2,34.3-40.5,47.9-16.9,14.1-36.2,22.8-58,26-29.4,4.3-58.7,3.5-87.7-2.4-9.9-2-19.8-4.8-28.9-11.2,36.2-7.1,69-21.4,100.1-39.4,26.6-15.4,46.8-37.4,61.6-64.3,12.1-21.9,19.6-45.4,24.5-70,5.1-26,6.3-52.1,5.3-78.4-.3-7.7-.3-15.2.3-22.8.4-4.7,1.6-7,7.1-6.9,18.9.5,34.1,9,48.6,20.1,11.5,8.8,14.9,20.1,15.4,33.7.7,20.4-.8,40.5-4.4,60.5h-.1Z"/>
  <path class="cls-1" d="m1357.3,453.6c-10.6-.2-18.9-8.8-18.6-19.2.3-10.2,8.8-18.4,19-18.3,10,0,18.7,9.1,18.4,19-.4,10.6-8.6,18.7-18.8,18.5Z"/>
  <path class="cls-2" d="m539.7,757c-8.8,6-17.9,8.5-27,10.6-20.8,4.9-42.1,6-63.4,5.4-27.6-.8-53.9-6.4-76.9-23.1-19.4-14.1-34.2-32.4-47.1-52.4-13.2-20.5-23.9-42.3-33.3-64.7-4.3-10.2-6.2-21.3-8.4-32.2-4.4-21.2-6.7-42.6-6.7-64.3s3.1-19.1,8.8-27.3c12.9-18.7,30.9-29.4,53.1-33.4,7-1.3,7.4-.4,9,6.2,3.5,14.3,0,28.5.2,42.8.7,38.4,6.2,75.8,21.6,111.2,17.4,40.1,45.4,70.4,84.9,89.9,18,8.8,36.2,17.2,55.2,23.4,8.6,2.8,17.3,5.6,26.4,6.8,1,0,1.9.6,3.7,1.2h-.1Z"/>
  <path class="cls-2" d="m544.8,658c-41.4,1.1-76.6-34-77.1-75.8-.5-44.3,35.5-78.7,77.1-78.6,43,0,77.3,34.3,77.7,77.1.4,42.9-35.9,78.9-77.6,77.3h-.1Z"/>
  <path class="cls-2" d="m1003.3,756.3c36.2-7.1,69-21.4,100.1-39.4,26.6-15.4,46.8-37.4,61.6-64.3,12.1-21.9,19.7-45.4,24.5-70,5.1-26,6.3-52.1,5.3-78.4-.3-7.7-.3-15.2.3-22.8.4-4.7,1.6-7,7.1-6.9,18.9.5,34,8.9,48.6,20.1,11.4,8.7,14.9,20.1,15.4,33.7.7,20.4-.8,40.5-4.4,60.5-2.7,14.7-5.1,29.5-10.6,43.4-8.9,22.3-19.8,43.5-32.7,63.9-11.3,17.9-24.2,34.3-40.5,47.9-16.9,14.1-36.2,22.8-58,25.9-29.4,4.3-58.7,3.5-87.7-2.4-9.9-2-19.8-4.8-28.9-11.2h-.1Z"/>
  <path class="cls-2" d="m915.9,578.2c.2-42.6,33.9-77.7,77.9-77.4,42.7.3,76.7,33.2,77,76.8.3,44.3-34.2,77.8-77.4,78-43.1.2-77.1-34-77.5-77.4h0Z"/>
</svg>